<?xml version="1.0" encoding="UTF-8"?>
<svg width="400px" height="400px" viewBox="0 0 400 400" version="1.1" xmlns="http://www.w3.org/2000/svg" xmlns:xlink="http://www.w3.org/1999/xlink">
    <!-- Generator: Sketch 48.1 (47250) - http://www.bohemiancoding.com/sketch -->
    <title>Shape</title>
    <desc>Created with Sketch.</desc>
    <defs>
        <linearGradient x1="50%" y1="0%" x2="50%" y2="100%" id="linearGradient-1">
            <stop stop-color="#20688A" offset="0%"></stop>
            <stop stop-color="#439BB2" offset="100%"></stop>
        </linearGradient>
    </defs>
    <g id="Page-1" stroke="none" stroke-width="1" fill="none" fill-rule="evenodd">
        <g id="A27aZYuY_400x400-(1)" transform="translate(0.000000, -1.000000)" fill="url(#linearGradient-1)" fill-rule="nonzero">
            <g id="Group" transform="translate(200.000000, 200.500000) scale(-1, 1) rotate(-180.000000) translate(-200.000000, -200.500000) translate(0.000000, 0.500000)">
                <path d="M234.5,398.5 C234.2,398 232.6,397.5 231,397.5 C227,397.5 215.9,394.9 207,391.8 C179.9,382.6 155.1,362.2 140.2,337 C137.9,333.2 135.7,329.4 135.3,328.7 C134.7,327.8 132.8,328.1 127,330.1 C110.4,336 93.4,333.4 79.5,323 C61.6,309.5 54.7,286.1 62.5,264.8 L64.7,258.6 L54.6,253.6 C33.7,243.4 19.3,228.9 9.5,208.2 C5.6,200.2 2,188.5 2,184.3 C2,182.8 1.6,181.3 1,181 C-0.3,180.2 -0.3,155.8 1,155 C1.5,154.7 2,153.2 2,151.7 C2,146.9 5.8,135.3 10.5,125.8 C18.5,109.7 30,97 45.5,87.4 C60.8,77.9 74.8,73.9 95.6,73 C102.5,72.7 108.6,72.2 109.1,71.9 C109.6,71.6 110,58.2 110,42.1 C110,13.4 110,12.7 112.2,9.5 C113.5,7.7 116.2,4.8 118.3,3.1 C121.8,0.3 122.8,0 129.4,0 C135.9,0 137.1,0.3 140.6,3 C142.7,4.6 159.5,20.9 177.8,39.2 L211.1,72.4 L272.3,72.8 C331.2,73.2 333.8,73.3 341.3,75.3 C369,82.9 388.1,101.1 397.5,129 C399.6,135.3 400.6,156.5 399.2,165.6 C398,173.3 394.2,183.4 389.3,191.8 C385,199 374.7,210.1 368,214.6 C364.8,216.7 363.1,218.6 363.4,219.5 C363.6,220.3 365.4,225.5 367.3,231 C372.8,246.4 374.3,255.8 374.3,273 C374.3,294.4 370.5,310.6 361.3,329 C344.3,362.9 312.9,387.5 275.7,395.9 C271.9,396.8 267.6,397.5 266,397.5 C264.4,397.5 262.8,398 262.5,398.5 C262.1,399.1 256.3,399.5 248.5,399.5 C240.7,399.5 234.9,399.1 234.5,398.5 Z M185.6,260.5 C186.8,255.8 189.8,243.2 192.4,232.5 C207.8,168.6 207.8,168.5 209.1,168.5 C209.6,168.5 210,169.2 210,170 C210,170.8 212,179.7 214.4,189.8 C216.9,199.8 220.8,215.9 223.1,225.5 C225.4,235.1 228.8,248.9 230.5,256 L233.7,269 L270.6,269 L307.5,269 L307.5,257 L307.5,245 L301.2,244.7 L295,244.4 L295.2,198.2 L295.5,152 L301.8,151.7 L308,151.4 L308,139.5 L308,127.5 L276,127.5 L244,127.5 L244,139.5 L244,151.4 L250.3,151.7 L256.5,152 L256.8,196.3 C256.9,220.6 256.7,240.5 256.3,240.5 C255.8,240.5 254.5,236.5 253.3,231.7 C252,226.9 250.4,220.8 249.6,218 C248.8,215.3 244.3,199.3 239.6,182.5 C235,165.7 229.6,146.6 227.7,140 L224.3,128 L205.3,127.7 L186.2,127.5 L185.2,131.7 C184.6,134.1 181.4,145.9 178,158 C174.6,170.1 171.4,181.4 171,183 C161.8,217.2 154.4,242.1 153.8,241 C153.3,240.3 153.1,219.9 153.2,195.8 L153.5,152 L160.3,151.7 L167,151.4 L167,139.5 L167,127.5 L138.5,127.5 L110,127.5 L110,139.5 L110,151.5 L116,151.5 L122,151.5 L122,198 L122,244.5 L116,244.5 L110,244.5 L110,257 L110,269.5 L146.7,269.3 L183.4,269 L185.6,260.5 Z" id="Shape"></path>
            </g>
        </g>
    </g>
</svg>